<?xml version="1.0" standalone="no"?>
<!DOCTYPE svg PUBLIC "-//W3C//DTD SVG 20010904//EN"
 "http://www.w3.org/TR/2001/REC-SVG-20010904/DTD/svg10.dtd">
<svg version="1.0" xmlns="http://www.w3.org/2000/svg"
 width="700.000000pt" height="100.000000pt" viewBox="0 0 700.000000 100.000000"
 preserveAspectRatio="xMidYMid meet">

<g transform="translate(0.000000,100.000000) scale(0.100000,-0.100000)"
fill="#000000" stroke="none">
<path d="M990 930 c0 -19 7 -20 105 -20 98 0 105 1 105 20 0 19 -7 20 -105 20
-98 0 -105 -1 -105 -20z"/>
<path d="M950 880 c0 -15 -7 -20 -25 -20 -18 0 -25 -5 -25 -20 0 -13 -7 -20
-20 -20 -13 0 -20 -7 -20 -20 0 -13 7 -20 20 -20 13 0 20 7 20 20 0 15 7 20
25 20 18 0 25 5 25 20 0 13 7 20 20 20 13 0 20 7 20 20 0 13 -7 20 -20 20 -13
0 -20 -7 -20 -20z"/>
<path d="M1210 880 c0 -13 7 -20 20 -20 13 0 20 -7 20 -20 0 -13 7 -20 20 -20
13 0 20 -7 20 -20 0 -13 7 -20 20 -20 13 0 20 7 20 20 0 13 -7 20 -20 20 -13
0 -20 7 -20 20 0 13 -7 20 -20 20 -13 0 -20 7 -20 20 0 13 -7 20 -20 20 -13 0
-20 -7 -20 -20z"/>
<path d="M2580 545 l0 -265 45 0 45 0 0 48 c1 39 5 50 26 66 l26 18 67 -66 67
-66 69 0 70 0 -98 98 c-53 53 -97 100 -97 103 0 4 41 43 90 88 l91 81 -72 0
-71 0 -84 -76 -84 -76 0 156 0 156 -45 0 -45 0 0 -265z"/>
<path d="M2362 788 c-7 -7 -12 -21 -12 -33 0 -12 5 -26 12 -33 17 -17 74 -15
92 4 19 18 20 28 6 55 -12 22 -78 27 -98 7z"/>
<path d="M3660 540 l0 -260 45 0 45 0 0 130 0 131 43 19 c79 36 161 19 192
-40 11 -20 15 -60 15 -135 l0 -105 45 0 45 0 0 119 c0 66 -5 132 -11 148 -35
94 -152 135 -275 98 -27 -8 -50 -15 -51 -15 -2 0 -3 38 -3 85 l0 85 -45 0 -45
0 0 -260z"/>
<path d="M3220 765 c-87 -28 -158 -109 -174 -198 -10 -54 10 -138 43 -184 73
-101 291 -140 425 -76 41 19 42 24 19 64 -14 23 -23 28 -38 23 -98 -32 -139
-37 -194 -26 -64 14 -96 34 -129 83 -32 47 -28 136 9 175 55 60 180 82 274 49
22 -8 41 -15 42 -15 3 0 43 67 43 73 0 2 -19 13 -42 22 -59 24 -218 30 -278
10z"/>
<path d="M820 646 c0 -122 -1 -125 -22 -128 -13 -2 -23 -10 -23 -18 0 -8 10
-16 23 -18 17 -3 22 2 22 17 0 14 6 21 20 21 19 0 20 7 20 125 0 118 -1 125
-20 125 -19 0 -20 -7 -20 -124z"/>
<path d="M1340 625 c0 -122 2 -145 15 -145 13 0 15 23 15 145 0 122 -2 145
-15 145 -13 0 -15 -23 -15 -145z"/>
<path d="M1800 730 l0 -40 90 0 90 0 0 -205 0 -205 50 0 50 0 0 205 0 205 90
0 90 0 0 40 0 40 -230 0 -230 0 0 -40z"/>
<path d="M990 710 c0 -13 7 -20 20 -20 13 0 20 7 20 20 0 13 -7 20 -20 20 -13
0 -20 -7 -20 -20z"/>
<path d="M1160 710 c0 -13 7 -20 20 -20 13 0 20 7 20 20 0 13 -7 20 -20 20
-13 0 -20 -7 -20 -20z"/>
<path d="M4330 651 c-93 -29 -142 -85 -148 -172 -4 -49 0 -65 21 -102 68 -116
276 -137 381 -39 106 100 55 271 -93 312 -41 11 -124 12 -161 1z m144 -85 c44
-18 66 -52 66 -99 0 -90 -117 -140 -211 -91 -14 7 -34 29 -43 49 -47 99 73
189 188 141z"/>
<path d="M4849 646 c-89 -32 -130 -89 -130 -181 0 -57 10 -85 45 -123 63 -70
204 -87 319 -38 l37 15 -21 35 -21 36 -36 -16 c-49 -21 -129 -21 -170 0 -41
21 -66 68 -58 111 15 77 118 116 216 81 34 -12 36 -12 53 16 9 16 17 33 17 38
0 15 -100 40 -159 40 -31 -1 -72 -7 -92 -14z"/>
<path d="M5339 646 c-143 -51 -186 -211 -83 -308 46 -42 100 -61 181 -61 137
1 222 75 223 194 0 64 -24 109 -79 146 -64 43 -168 56 -242 29z m154 -80 c114
-48 87 -196 -38 -207 -65 -5 -87 1 -121 35 -57 57 -43 140 30 172 40 17 88 17
129 0z"/>
<path d="M2360 465 l0 -185 45 0 45 0 0 185 0 185 -45 0 -45 0 0 -185z"/>
<path d="M1030 585 c0 -12 14 -15 65 -15 51 0 65 3 65 15 0 12 -14 15 -65 15
-51 0 -65 -3 -65 -15z"/>
<path d="M730 455 c0 -8 9 -15 20 -15 11 0 20 7 20 15 0 8 -9 15 -20 15 -11 0
-20 -7 -20 -15z"/>
<path d="M1380 455 c0 -8 9 -15 20 -15 11 0 20 7 20 15 0 8 -9 15 -20 15 -11
0 -20 -7 -20 -15z"/>
<path d="M770 416 c0 -10 14 -16 43 -18 35 -2 43 -7 45 -25 2 -15 10 -23 23
-23 16 0 19 -7 19 -40 0 -36 3 -40 25 -40 23 0 25 4 25 40 0 36 -2 40 -25 40
-18 0 -25 5 -25 20 0 13 -7 20 -20 20 -13 0 -20 7 -20 20 0 17 -7 20 -45 20
-33 0 -45 -4 -45 -14z"/>
<path d="M1420 416 c0 -7 9 -16 20 -19 15 -4 20 0 20 14 0 12 -7 19 -20 19
-11 0 -20 -6 -20 -14z"/>
<path d="M1290 370 c0 -13 -7 -20 -20 -20 -17 0 -20 -7 -20 -40 0 -33 3 -40
20 -40 17 0 20 7 20 40 l0 40 65 0 c58 0 65 2 65 20 0 18 -7 20 -65 20 -58 0
-65 -2 -65 -20z"/>
<path d="M950 240 c0 -13 7 -20 20 -20 13 0 20 -7 20 -20 0 -13 7 -20 20 -20
13 0 20 7 20 20 0 13 -7 20 -20 20 -13 0 -20 7 -20 20 0 13 -7 20 -20 20 -13
0 -20 -7 -20 -20z"/>
<path d="M1210 240 c0 -13 7 -20 20 -20 13 0 20 7 20 20 0 13 -7 20 -20 20
-13 0 -20 -7 -20 -20z"/>
<path d="M1160 180 c0 -33 3 -40 20 -40 17 0 20 7 20 40 0 33 -3 40 -20 40
-17 0 -20 -7 -20 -40z"/>
<path d="M1030 155 c0 -8 9 -15 20 -15 11 0 20 7 20 15 0 8 -9 15 -20 15 -11
0 -20 -7 -20 -15z"/>
<path d="M1080 109 c0 -16 5 -20 20 -16 16 4 20 0 20 -19 0 -17 6 -24 20 -24
17 0 20 7 20 40 l0 40 -40 0 c-34 0 -40 -3 -40 -21z"/>
</g>
</svg>
